<svg width="24" height="24" viewBox="0 0 24 24" fill="none" xmlns="http://www.w3.org/2000/svg">
<path d="M12.871 6.32632C14.0709 6.52742 15.1608 7.09414 16.031 7.9625C16.9011 8.83087 17.4644 9.91861 17.6705 11.116M13.0542 2.40039C15.1883 2.76145 17.1347 3.77149 18.6826 5.3117C20.2306 6.85647 21.2381 8.79887 21.5999 10.9286M19.9329 19.4021C19.9329 19.4021 18.7742 20.5401 18.4903 20.8737C18.0277 21.3673 17.4827 21.6004 16.7683 21.6004C16.6996 21.6004 16.6263 21.6004 16.5576 21.5958C15.1974 21.509 13.9335 20.9788 12.9855 20.5264C10.3933 19.2741 8.11724 17.4962 6.22582 15.243C4.66415 13.3646 3.61997 11.6279 2.92844 9.76321C2.50253 8.62519 2.34682 7.73854 2.41551 6.90217C2.46131 6.36744 2.6674 5.92412 3.04751 5.54478L4.60919 3.9863C4.83359 3.77606 5.07174 3.6618 5.3053 3.6618C5.59382 3.6618 5.82739 3.83547 5.97394 3.98173C5.97852 3.9863 5.9831 3.99087 5.98768 3.99544C6.26704 4.25595 6.53266 4.5256 6.81202 4.81353C6.95399 4.95978 7.10054 5.10603 7.24709 5.25685L8.49735 6.50455C8.9828 6.98901 8.9828 7.4369 8.49735 7.92136C8.36454 8.0539 8.23631 8.18644 8.1035 8.31441C7.7188 8.70746 8.021 8.40587 7.62257 8.76236C7.61341 8.7715 7.60425 8.77607 7.59967 8.78521C7.20582 9.17826 7.27909 9.56217 7.36153 9.82268C7.36611 9.83639 7.37069 9.8501 7.37527 9.86381C7.70042 10.6499 8.15839 11.3903 8.85451 12.2724L8.85909 12.277C10.1231 13.8309 11.4558 15.042 12.9259 15.9698C13.1136 16.0886 13.306 16.1846 13.4892 16.276C13.654 16.3583 13.8097 16.436 13.9426 16.5182C13.9609 16.5274 13.9792 16.5411 13.9975 16.5502C14.1532 16.6279 14.2998 16.6645 14.4509 16.6645C14.831 16.6645 15.0692 16.4268 15.147 16.3491L16.0447 15.4533C16.2004 15.2979 16.4477 15.1105 16.7362 15.1105C17.0202 15.1105 17.2537 15.2887 17.3957 15.4441C17.4003 15.4487 17.4003 15.4487 17.4049 15.4533L19.9283 17.9715C20.4 18.4377 19.9329 19.4021 19.9329 19.4021Z" stroke="#E3E41A" stroke-width="2" stroke-linecap="round" stroke-linejoin="round"/>
</svg>
